G04 Layer: TopLayer*
G04 EasyEDA v6.5.50, 2025-05-30 20:44:05*
G04 89249954dcc5414fb4ee1276e004d1e2,618cf9a269824c858c8e39f74ea16190,10*
G04 Gerber Generator version 0.2*
G04 Scale: 100 percent, Rotated: No, Reflected: No *
G04 Dimensions in millimeters *
G04 leading zeros omitted , absolute positions ,4 integer and 5 decimal *
%FSLAX45Y45*%
%MOMM*%

%ADD10C,0.2032*%
%ADD11C,0.2540*%
%ADD12R,1.5000X2.5000*%
%ADD13C,1.5240*%
%ADD14R,1.5240X1.5240*%
%ADD15C,0.6096*%
%ADD16C,0.0119*%

%LPD*%
D10*
X1489963Y4823612D02*
G01*
X1585468Y4859934D01*
X1489963Y4896256D02*
G01*
X1585468Y4859934D01*
X1512570Y4994554D02*
G01*
X1503426Y4989982D01*
X1494536Y4980838D01*
X1489963Y4971694D01*
X1489963Y4953660D01*
X1494536Y4944516D01*
X1503426Y4935372D01*
X1512570Y4930800D01*
X1526286Y4926228D01*
X1548892Y4926228D01*
X1562607Y4930800D01*
X1571752Y4935372D01*
X1580895Y4944516D01*
X1585468Y4953660D01*
X1585468Y4971694D01*
X1580895Y4980838D01*
X1571752Y4989982D01*
X1562607Y4994554D01*
X1512570Y5092598D02*
G01*
X1503426Y5088280D01*
X1494536Y5079136D01*
X1489963Y5069992D01*
X1489963Y5051704D01*
X1494536Y5042814D01*
X1503426Y5033670D01*
X1512570Y5029098D01*
X1526286Y5024526D01*
X1548892Y5024526D01*
X1562607Y5029098D01*
X1571752Y5033670D01*
X1580895Y5042814D01*
X1585468Y5051704D01*
X1585468Y5069992D01*
X1580895Y5079136D01*
X1571752Y5088280D01*
X1562607Y5092598D01*
X1766570Y4891684D02*
G01*
X1757426Y4887366D01*
X1748536Y4878222D01*
X1743963Y4869078D01*
X1743963Y4850790D01*
X1748536Y4841900D01*
X1757426Y4832756D01*
X1766570Y4828184D01*
X1780286Y4823612D01*
X1802892Y4823612D01*
X1816607Y4828184D01*
X1825752Y4832756D01*
X1834895Y4841900D01*
X1839468Y4850790D01*
X1839468Y4869078D01*
X1834895Y4878222D01*
X1825752Y4887366D01*
X1816607Y4891684D01*
X1802892Y4891684D01*
X1802892Y4869078D02*
G01*
X1802892Y4891684D01*
X1743963Y4921910D02*
G01*
X1839468Y4921910D01*
X1743963Y4921910D02*
G01*
X1839468Y4985410D01*
X1743963Y4985410D02*
G01*
X1839468Y4985410D01*
X1743963Y5015382D02*
G01*
X1839468Y5015382D01*
X1743963Y5015382D02*
G01*
X1743963Y5047132D01*
X1748536Y5060848D01*
X1757426Y5069992D01*
X1766570Y5074564D01*
X1780286Y5079136D01*
X1802892Y5079136D01*
X1816607Y5074564D01*
X1825752Y5069992D01*
X1834895Y5060848D01*
X1839468Y5047132D01*
X1839468Y5015382D01*
X2011425Y4887366D02*
G01*
X2002536Y4878222D01*
X1997963Y4864506D01*
X1997963Y4846218D01*
X2002536Y4832756D01*
X2011425Y4823612D01*
X2020570Y4823612D01*
X2029713Y4828184D01*
X2034286Y4832756D01*
X2038858Y4841900D01*
X2048002Y4869078D01*
X2052320Y4878222D01*
X2056891Y4882794D01*
X2066036Y4887366D01*
X2079752Y4887366D01*
X2088895Y4878222D01*
X2093468Y4864506D01*
X2093468Y4846218D01*
X2088895Y4832756D01*
X2079752Y4823612D01*
X2020570Y4985410D02*
G01*
X2011425Y4980838D01*
X2002536Y4971694D01*
X1997963Y4962804D01*
X1997963Y4944516D01*
X2002536Y4935372D01*
X2011425Y4926228D01*
X2020570Y4921910D01*
X2034286Y4917338D01*
X2056891Y4917338D01*
X2070608Y4921910D01*
X2079752Y4926228D01*
X2088895Y4935372D01*
X2093468Y4944516D01*
X2093468Y4962804D01*
X2088895Y4971694D01*
X2079752Y4980838D01*
X2070608Y4985410D01*
X1997963Y5015382D02*
G01*
X2093468Y5015382D01*
X2093468Y5015382D02*
G01*
X2093468Y5069992D01*
X2265425Y4887366D02*
G01*
X2256536Y4878222D01*
X2251963Y4864506D01*
X2251963Y4846218D01*
X2256536Y4832756D01*
X2265425Y4823612D01*
X2274570Y4823612D01*
X2283713Y4828184D01*
X2288286Y4832756D01*
X2292858Y4841900D01*
X2302002Y4869078D01*
X2306320Y4878222D01*
X2310891Y4882794D01*
X2320036Y4887366D01*
X2333752Y4887366D01*
X2342895Y4878222D01*
X2347468Y4864506D01*
X2347468Y4846218D01*
X2342895Y4832756D01*
X2333752Y4823612D01*
X2251963Y4917338D02*
G01*
X2347468Y4917338D01*
X2251963Y4917338D02*
G01*
X2251963Y4949088D01*
X2256536Y4962804D01*
X2265425Y4971694D01*
X2274570Y4976266D01*
X2288286Y4980838D01*
X2310891Y4980838D01*
X2324608Y4976266D01*
X2333752Y4971694D01*
X2342895Y4962804D01*
X2347468Y4949088D01*
X2347468Y4917338D01*
X2251963Y5047132D02*
G01*
X2347468Y5010810D01*
X2251963Y5047132D02*
G01*
X2347468Y5083708D01*
X2315463Y5024526D02*
G01*
X2315463Y5069992D01*
D11*
X1638300Y6364706D02*
G01*
X1638300Y6416098D01*
X1549430Y6504967D01*
X2298702Y5232402D02*
G01*
X3228647Y6162347D01*
X4052699Y6162347D01*
X4089402Y6199050D01*
X4178300Y6364706D02*
G01*
X4178300Y6287950D01*
X4089400Y6199050D01*
X2044702Y5232402D02*
G01*
X2155141Y5121963D01*
X2337615Y5121963D01*
X2425702Y5210050D01*
X2425702Y5253865D01*
X3176475Y6004638D01*
X4656990Y6004638D01*
X4851402Y6199050D01*
X4940300Y6364706D02*
G01*
X4940300Y6287950D01*
X4851400Y6199050D01*
X5194300Y6364706D02*
G01*
X5194300Y6287950D01*
X5105400Y6199050D01*
X3924300Y8900693D02*
G01*
X3924300Y8823914D01*
X3835425Y8735039D01*
X3835427Y8735037D02*
G01*
X3742794Y8735037D01*
X3711933Y8765898D01*
X1638300Y8900693D02*
G01*
X1638300Y8823906D01*
X1549430Y8735039D01*
X1549427Y8735037D02*
G01*
X1663397Y8735037D01*
D12*
G01*
X1638300Y8900693D03*
G01*
X1892300Y8900693D03*
G01*
X2146300Y8900693D03*
G01*
X2400300Y8900693D03*
G01*
X2654300Y8900693D03*
G01*
X2908300Y8900693D03*
G01*
X3162300Y8900693D03*
G01*
X3416300Y8900693D03*
G01*
X3670300Y8900693D03*
G01*
X3924300Y8900693D03*
G01*
X4178300Y8900693D03*
G01*
X4432300Y8900693D03*
G01*
X4686300Y8900693D03*
G01*
X4940300Y8900693D03*
G01*
X5194300Y8900693D03*
G01*
X5448300Y8900693D03*
G01*
X5448300Y6364706D03*
G01*
X5194300Y6364706D03*
G01*
X4940300Y6364706D03*
G01*
X4686300Y6364706D03*
G01*
X4432300Y6364706D03*
G01*
X4178300Y6364706D03*
G01*
X3924300Y6364706D03*
G01*
X3670300Y6364706D03*
G01*
X3416300Y6364706D03*
G01*
X3162300Y6364706D03*
G01*
X2908300Y6364706D03*
G01*
X2654300Y6364706D03*
G01*
X2400300Y6364706D03*
G01*
X2146300Y6364706D03*
G01*
X1892300Y6364706D03*
G01*
X1638300Y6364706D03*
D13*
G01*
X3835400Y2755900D03*
G01*
X3835400Y3009900D03*
G01*
X3835400Y3263900D03*
G01*
X3835400Y3517900D03*
D14*
G01*
X1536700Y5232400D03*
D13*
G01*
X1790700Y5232400D03*
G01*
X2044700Y5232400D03*
G01*
X2298700Y5232400D03*
G01*
X2552700Y5232400D03*
G01*
X2806700Y5232400D03*
G01*
X3060700Y5232400D03*
D15*
G01*
X1663395Y8735034D03*
G01*
X3711930Y8765895D03*
M02*
