G04 Layer: TopSilkscreenLayer*
G04 EasyEDA v6.5.50, 2025-05-30 20:44:05*
G04 89249954dcc5414fb4ee1276e004d1e2,618cf9a269824c858c8e39f74ea16190,10*
G04 Gerber Generator version 0.2*
G04 Scale: 100 percent, Rotated: No, Reflected: No *
G04 Dimensions in millimeters *
G04 leading zeros omitted , absolute positions ,4 integer and 5 decimal *
%FSLAX45Y45*%
%MOMM*%

%ADD10C,0.1524*%
%ADD11C,0.2032*%
%ADD12C,0.2540*%
%ADD13C,0.0140*%

%LPD*%
D10*
X5943600Y2386584D02*
G01*
X5943600Y2464562D01*
X5938520Y2480055D01*
X5928106Y2490470D01*
X5912358Y2495550D01*
X5901943Y2495550D01*
X5886450Y2490470D01*
X5876036Y2480055D01*
X5870956Y2464562D01*
X5870956Y2386584D01*
X5836665Y2407412D02*
G01*
X5826252Y2402078D01*
X5810504Y2386584D01*
X5810504Y2495550D01*
D11*
X4102100Y3161792D02*
G01*
X4025645Y3132581D01*
X4102100Y3103626D02*
G01*
X4025645Y3132581D01*
X4083811Y3025139D02*
G01*
X4091177Y3028695D01*
X4098290Y3036062D01*
X4102100Y3043173D01*
X4102100Y3057905D01*
X4098290Y3065018D01*
X4091177Y3072384D01*
X4083811Y3075939D01*
X4072890Y3079495D01*
X4054856Y3079495D01*
X4043934Y3075939D01*
X4036568Y3072384D01*
X4029202Y3065018D01*
X4025645Y3057905D01*
X4025645Y3043173D01*
X4029202Y3036062D01*
X4036568Y3028695D01*
X4043934Y3025139D01*
X4083811Y2946400D02*
G01*
X4091177Y2950210D01*
X4098290Y2957321D01*
X4102100Y2964687D01*
X4102100Y2979165D01*
X4098290Y2986531D01*
X4091177Y2993897D01*
X4083811Y2997454D01*
X4072890Y3001010D01*
X4054856Y3001010D01*
X4043934Y2997454D01*
X4036568Y2993897D01*
X4029202Y2986531D01*
X4025645Y2979165D01*
X4025645Y2964687D01*
X4029202Y2957321D01*
X4036568Y2950210D01*
X4043934Y2946400D01*
X4102102Y2818129D02*
G01*
X4025648Y2818129D01*
X4102102Y2818129D02*
G01*
X4102102Y2792729D01*
X4098292Y2781807D01*
X4091180Y2774442D01*
X4083814Y2770886D01*
X4072892Y2767329D01*
X4054858Y2767329D01*
X4043936Y2770886D01*
X4036570Y2774442D01*
X4029204Y2781807D01*
X4025648Y2792729D01*
X4025648Y2818129D01*
X4102102Y2721355D02*
G01*
X4098292Y2732278D01*
X4087624Y2739644D01*
X4069336Y2743200D01*
X4058414Y2743200D01*
X4040126Y2739644D01*
X4029204Y2732278D01*
X4025648Y2721355D01*
X4025648Y2714244D01*
X4029204Y2703321D01*
X4040126Y2695955D01*
X4058414Y2692400D01*
X4069336Y2692400D01*
X4087624Y2695955D01*
X4098292Y2703321D01*
X4102102Y2714244D01*
X4102102Y2721355D01*
X4083811Y3350260D02*
G01*
X4091177Y3354070D01*
X4098290Y3361181D01*
X4102100Y3368547D01*
X4102100Y3383026D01*
X4098290Y3390392D01*
X4091177Y3397504D01*
X4083811Y3401313D01*
X4072890Y3404870D01*
X4054856Y3404870D01*
X4043934Y3401313D01*
X4036568Y3397504D01*
X4029202Y3390392D01*
X4025645Y3383026D01*
X4025645Y3368547D01*
X4029202Y3361181D01*
X4036568Y3354070D01*
X4043934Y3350260D01*
X4054856Y3350260D01*
X4054856Y3368547D02*
G01*
X4054856Y3350260D01*
X4102100Y3326384D02*
G01*
X4025645Y3326384D01*
X4102100Y3326384D02*
G01*
X4025645Y3275329D01*
X4102100Y3275329D02*
G01*
X4025645Y3275329D01*
X4102100Y3251454D02*
G01*
X4025645Y3251454D01*
X4102100Y3251454D02*
G01*
X4102100Y3226054D01*
X4098290Y3215131D01*
X4091177Y3207765D01*
X4083811Y3204210D01*
X4072890Y3200400D01*
X4054856Y3200400D01*
X4043934Y3204210D01*
X4036568Y3207765D01*
X4029202Y3215131D01*
X4025645Y3226054D01*
X4025645Y3251454D01*
X4102100Y3558286D02*
G01*
X4025645Y3587495D01*
X4102100Y3558286D02*
G01*
X4025645Y3529329D01*
X4051045Y3576573D02*
G01*
X4051045Y3540252D01*
X4102100Y3483610D02*
G01*
X4098290Y3494531D01*
X4087622Y3501644D01*
X4069334Y3505200D01*
X4058411Y3505200D01*
X4040124Y3501644D01*
X4029202Y3494531D01*
X4025645Y3483610D01*
X4025645Y3476244D01*
X4029202Y3465321D01*
X4040124Y3457955D01*
X4058411Y3454400D01*
X4069334Y3454400D01*
X4087622Y3457955D01*
X4098290Y3465321D01*
X4102100Y3476244D01*
X4102100Y3483610D01*
X8026400Y2592829D02*
G01*
X8026400Y2736085D01*
X7930895Y2592829D02*
G01*
X8026400Y2688333D01*
X7992363Y2654043D02*
G01*
X7930895Y2736085D01*
X7885938Y2592829D02*
G01*
X7831327Y2660901D01*
X7831327Y2736085D01*
X7776972Y2592829D02*
G01*
X7831327Y2660901D01*
X7731759Y2674617D02*
G01*
X7609077Y2674617D01*
X7523225Y2592829D02*
G01*
X7543545Y2599687D01*
X7557261Y2620007D01*
X7564120Y2654043D01*
X7564120Y2674617D01*
X7557261Y2708653D01*
X7543545Y2729227D01*
X7523225Y2736085D01*
X7509509Y2736085D01*
X7489190Y2729227D01*
X7475474Y2708653D01*
X7468615Y2674617D01*
X7468615Y2654043D01*
X7475474Y2620007D01*
X7489190Y2599687D01*
X7509509Y2592829D01*
X7523225Y2592829D01*
X7409941Y2592829D02*
G01*
X7335011Y2592829D01*
X7375906Y2647439D01*
X7355586Y2647439D01*
X7341870Y2654043D01*
X7335011Y2660901D01*
X7328154Y2681475D01*
X7328154Y2695191D01*
X7335011Y2715511D01*
X7348727Y2729227D01*
X7369047Y2736085D01*
X7389622Y2736085D01*
X7409941Y2729227D01*
X7416800Y2722369D01*
X7423658Y2708653D01*
X7187691Y2592829D02*
G01*
X7256018Y2736085D01*
X7283195Y2592829D02*
G01*
X7187691Y2592829D01*
X6983222Y2592829D02*
G01*
X7037831Y2736085D01*
X6983222Y2592829D02*
G01*
X6928611Y2736085D01*
X7017258Y2688333D02*
G01*
X6949186Y2688333D01*
X6801865Y2660901D02*
G01*
X6815581Y2647439D01*
X6829043Y2640581D01*
X6849618Y2640581D01*
X6863334Y2647439D01*
X6876795Y2660901D01*
X6883654Y2681475D01*
X6883654Y2695191D01*
X6876795Y2715511D01*
X6863334Y2729227D01*
X6849618Y2736085D01*
X6829043Y2736085D01*
X6815581Y2729227D01*
X6801865Y2715511D01*
X6722872Y2640581D02*
G01*
X6736334Y2647439D01*
X6750050Y2660901D01*
X6756908Y2681475D01*
X6756908Y2695191D01*
X6750050Y2715511D01*
X6736334Y2729227D01*
X6722872Y2736085D01*
X6702297Y2736085D01*
X6688581Y2729227D01*
X6675120Y2715511D01*
X6668261Y2695191D01*
X6668261Y2681475D01*
X6675120Y2660901D01*
X6688581Y2647439D01*
X6702297Y2640581D01*
X6722872Y2640581D01*
X6623304Y2640581D02*
G01*
X6623304Y2708653D01*
X6616445Y2729227D01*
X6602729Y2736085D01*
X6582409Y2736085D01*
X6568693Y2729227D01*
X6548120Y2708653D01*
X6548120Y2640581D02*
G01*
X6548120Y2736085D01*
X6428231Y2660901D02*
G01*
X6435090Y2647439D01*
X6455409Y2640581D01*
X6475984Y2640581D01*
X6496304Y2647439D01*
X6503161Y2660901D01*
X6496304Y2674617D01*
X6482841Y2681475D01*
X6448552Y2688333D01*
X6435090Y2695191D01*
X6428231Y2708653D01*
X6428231Y2715511D01*
X6435090Y2729227D01*
X6455409Y2736085D01*
X6475984Y2736085D01*
X6496304Y2729227D01*
X6503161Y2715511D01*
X6362700Y2592829D02*
G01*
X6362700Y2708653D01*
X6355841Y2729227D01*
X6342379Y2736085D01*
X6328663Y2736085D01*
X6383274Y2640581D02*
G01*
X6335522Y2640581D01*
X6283706Y2592829D02*
G01*
X6276847Y2599687D01*
X6269990Y2592829D01*
X6276847Y2585971D01*
X6283706Y2592829D01*
X6276847Y2640581D02*
G01*
X6276847Y2736085D01*
X6143243Y2660901D02*
G01*
X6156959Y2647439D01*
X6170422Y2640581D01*
X6190995Y2640581D01*
X6204458Y2647439D01*
X6218174Y2660901D01*
X6225031Y2681475D01*
X6225031Y2695191D01*
X6218174Y2715511D01*
X6204458Y2729227D01*
X6190995Y2736085D01*
X6170422Y2736085D01*
X6156959Y2729227D01*
X6143243Y2715511D01*
X5897879Y2613149D02*
G01*
X5911341Y2599687D01*
X5931915Y2592829D01*
X5959093Y2592829D01*
X5979668Y2599687D01*
X5993129Y2613149D01*
X5993129Y2626865D01*
X5986525Y2640581D01*
X5979668Y2647439D01*
X5965952Y2654043D01*
X5925058Y2667759D01*
X5911341Y2674617D01*
X5904484Y2681475D01*
X5897879Y2695191D01*
X5897879Y2715511D01*
X5911341Y2729227D01*
X5931915Y2736085D01*
X5959093Y2736085D01*
X5979668Y2729227D01*
X5993129Y2715511D01*
X5852668Y2681475D02*
G01*
X5770879Y2681475D01*
X5770879Y2667759D01*
X5777738Y2654043D01*
X5784595Y2647439D01*
X5798311Y2640581D01*
X5818631Y2640581D01*
X5832347Y2647439D01*
X5846063Y2660901D01*
X5852668Y2681475D01*
X5852668Y2695191D01*
X5846063Y2715511D01*
X5832347Y2729227D01*
X5818631Y2736085D01*
X5798311Y2736085D01*
X5784595Y2729227D01*
X5770879Y2715511D01*
X5725922Y2640581D02*
G01*
X5725922Y2736085D01*
X5725922Y2667759D02*
G01*
X5705602Y2647439D01*
X5691886Y2640581D01*
X5671311Y2640581D01*
X5657850Y2647439D01*
X5650991Y2667759D01*
X5650991Y2736085D01*
X5530850Y2660901D02*
G01*
X5537708Y2647439D01*
X5558281Y2640581D01*
X5578602Y2640581D01*
X5599175Y2647439D01*
X5606034Y2660901D01*
X5599175Y2674617D01*
X5585459Y2681475D01*
X5551424Y2688333D01*
X5537708Y2695191D01*
X5530850Y2708653D01*
X5530850Y2715511D01*
X5537708Y2729227D01*
X5558281Y2736085D01*
X5578602Y2736085D01*
X5599175Y2729227D01*
X5606034Y2715511D01*
X5451856Y2640581D02*
G01*
X5465572Y2647439D01*
X5479034Y2660901D01*
X5485891Y2681475D01*
X5485891Y2695191D01*
X5479034Y2715511D01*
X5465572Y2729227D01*
X5451856Y2736085D01*
X5431281Y2736085D01*
X5417820Y2729227D01*
X5404104Y2715511D01*
X5397245Y2695191D01*
X5397245Y2681475D01*
X5404104Y2660901D01*
X5417820Y2647439D01*
X5431281Y2640581D01*
X5451856Y2640581D01*
X5352288Y2640581D02*
G01*
X5352288Y2736085D01*
X5352288Y2681475D02*
G01*
X5345429Y2660901D01*
X5331968Y2647439D01*
X5318252Y2640581D01*
X5297677Y2640581D01*
D10*
X977077Y7610289D02*
G01*
X1055055Y7610289D01*
X1070549Y7615369D01*
X1080963Y7625783D01*
X1086043Y7641531D01*
X1086043Y7651945D01*
X1080963Y7667439D01*
X1070549Y7677853D01*
X1055055Y7682933D01*
X977077Y7682933D01*
X1002985Y7722557D02*
G01*
X997905Y7722557D01*
X987491Y7727637D01*
X982157Y7732971D01*
X977077Y7743385D01*
X977077Y7763959D01*
X982157Y7774373D01*
X987491Y7779707D01*
X997905Y7784787D01*
X1008319Y7784787D01*
X1018733Y7779707D01*
X1034227Y7769293D01*
X1086043Y7717223D01*
X1086043Y7790121D01*
X2289302Y5523128D02*
G01*
X2289302Y5445150D01*
X2294381Y5429656D01*
X2304795Y5419242D01*
X2320543Y5414162D01*
X2330958Y5414162D01*
X2346452Y5419242D01*
X2356865Y5429656D01*
X2361945Y5445150D01*
X2361945Y5523128D01*
X2458720Y5507634D02*
G01*
X2453386Y5518048D01*
X2437891Y5523128D01*
X2427477Y5523128D01*
X2411984Y5518048D01*
X2401570Y5502300D01*
X2396236Y5476392D01*
X2396236Y5450484D01*
X2401570Y5429656D01*
X2411984Y5419242D01*
X2427477Y5414162D01*
X2432811Y5414162D01*
X2448306Y5419242D01*
X2458720Y5429656D01*
X2463800Y5445150D01*
X2463800Y5450484D01*
X2458720Y5465978D01*
X2448306Y5476392D01*
X2432811Y5481472D01*
X2427477Y5481472D01*
X2411984Y5476392D01*
X2401570Y5465978D01*
X2396236Y5450484D01*
D12*
X8089900Y2540000D02*
G01*
X4851400Y2540000D01*
X4851400Y3746500D01*
X8089900Y3746500D01*
X8089900Y2540000D01*
X4851400Y2628900D02*
G01*
X3962400Y2628900D01*
X3962400Y3644900D01*
X4851400Y3644900D01*
X4851400Y2628900D01*
X1540410Y6832701D02*
G01*
X1540410Y8432698D01*
X1148308Y6832701D02*
G01*
X2943301Y6832701D01*
X2943301Y8432698D01*
X1148308Y8432698D01*
X6648295Y7379291D02*
G01*
X6140295Y7379291D01*
X6140295Y7887291D01*
X6648295Y7887291D01*
X1148308Y6364701D02*
G01*
X1148308Y8900695D01*
X1540197Y6364701D02*
G01*
X1148308Y6364701D01*
X1794197Y6364701D02*
G01*
X1736415Y6364701D01*
X2048197Y6364701D02*
G01*
X1990415Y6364701D01*
X2302189Y6364701D02*
G01*
X2244415Y6364701D01*
X2556189Y6364701D02*
G01*
X2498415Y6364701D01*
X2810184Y6364701D02*
G01*
X2752415Y6364701D01*
X3064184Y6364701D02*
G01*
X3006415Y6364701D01*
X3318184Y6364701D02*
G01*
X3260415Y6364701D01*
X3572184Y6364701D02*
G01*
X3514415Y6364701D01*
X3826184Y6364701D02*
G01*
X3768415Y6364701D01*
X4080184Y6364701D02*
G01*
X4022415Y6364701D01*
X4334184Y6364701D02*
G01*
X4276415Y6364701D01*
X4588184Y6364701D02*
G01*
X4530415Y6364701D01*
X4842184Y6364701D02*
G01*
X4784415Y6364701D01*
X5096184Y6364701D02*
G01*
X5038415Y6364701D01*
X5350184Y6364701D02*
G01*
X5292415Y6364701D01*
X6648295Y6364701D02*
G01*
X5546407Y6364701D01*
X6648295Y8900695D02*
G01*
X6648295Y6364701D01*
X5546407Y8900695D02*
G01*
X6648295Y8900695D01*
X5292415Y8900695D02*
G01*
X5350184Y8900695D01*
X5038415Y8900695D02*
G01*
X5096184Y8900695D01*
X4784415Y8900695D02*
G01*
X4842184Y8900695D01*
X4530415Y8900695D02*
G01*
X4588184Y8900695D01*
X4276415Y8900695D02*
G01*
X4334184Y8900695D01*
X4022415Y8900695D02*
G01*
X4080184Y8900695D01*
X3768415Y8900695D02*
G01*
X3826184Y8900695D01*
X3514415Y8900695D02*
G01*
X3572184Y8900695D01*
X3260415Y8900695D02*
G01*
X3318184Y8900695D01*
X3006415Y8900695D02*
G01*
X3064184Y8900695D01*
X2752415Y8900695D02*
G01*
X2810184Y8900695D01*
X2498415Y8900695D02*
G01*
X2556189Y8900695D01*
X2244415Y8900695D02*
G01*
X2302189Y8900695D01*
X1990415Y8900695D02*
G01*
X2048197Y8900695D01*
X1736415Y8900695D02*
G01*
X1794197Y8900695D01*
X1148308Y8900695D02*
G01*
X1540197Y8900695D01*
X3148698Y2582418D02*
G01*
X1448701Y2582418D01*
X3298697Y5232412D02*
G01*
X3298697Y2732417D01*
X1298702Y2732417D02*
G01*
X1298702Y5232412D01*
X1448701Y5382412D02*
G01*
X3148698Y5382412D01*
G75*
G01*
X1298702Y5232413D02*
G02*
X1448702Y5382412I150000J0D01*
G75*
G01*
X3148698Y5382412D02*
G02*
X3298698Y5232413I0J-149999D01*
G75*
G01*
X1448702Y2582418D02*
G02*
X1298702Y2732418I0J150000D01*
G75*
G01*
X3298698Y2732418D02*
G02*
X3148698Y2582418I-150000J0D01*
M02*
