G04 Layer: TopSolderMaskLayer*
G04 EasyEDA v6.5.50, 2025-05-30 20:44:05*
G04 89249954dcc5414fb4ee1276e004d1e2,618cf9a269824c858c8e39f74ea16190,10*
G04 Gerber Generator version 0.2*
G04 Scale: 100 percent, Rotated: No, Reflected: No *
G04 Dimensions in millimeters *
G04 leading zeros omitted , absolute positions ,4 integer and 5 decimal *
%FSLAX45Y45*%
%MOMM*%

%AMMACRO1*4,1,8,-0.771,-1.3007,-0.8007,-1.2708,-0.8007,1.271,-0.771,1.3007,0.7708,1.3007,0.8007,1.271,0.8007,-1.2708,0.7708,-1.3007,-0.771,-1.3007,0*%
%AMMACRO2*4,1,8,-0.7711,-1.3007,-0.8009,-1.2708,-0.8009,1.271,-0.7711,1.3007,0.7709,1.3007,0.8009,1.271,0.8009,-1.2708,0.7709,-1.3007,-0.7711,-1.3007,0*%
%AMMACRO3*4,1,8,-0.7831,-0.8128,-0.8128,-0.7828,-0.8128,0.7831,-0.7831,0.8128,0.7828,0.8128,0.8128,0.7831,0.8128,-0.7828,0.7828,-0.8128,-0.7831,-0.8128,0*%
%ADD10C,1.7272*%
%ADD11MACRO1*%
%ADD12MACRO2*%
%ADD13MACRO3*%
%ADD14C,1.6256*%
%ADD15C,0.0165*%

%LPD*%
D10*
G01*
X3835400Y2755900D03*
G01*
X3835400Y3009900D03*
G01*
X3835400Y3263900D03*
G01*
X3835400Y3517900D03*
D11*
G01*
X1638312Y8900693D03*
G01*
X1892312Y8900693D03*
D12*
G01*
X2146300Y8900693D03*
G01*
X2400300Y8900693D03*
G01*
X2654300Y8900693D03*
G01*
X2908300Y8900693D03*
G01*
X3162300Y8900693D03*
G01*
X3416300Y8900693D03*
G01*
X3670300Y8900693D03*
G01*
X3924300Y8900693D03*
G01*
X4178300Y8900693D03*
G01*
X4432300Y8900693D03*
G01*
X4686300Y8900693D03*
G01*
X4940300Y8900693D03*
G01*
X5194300Y8900693D03*
G01*
X5448300Y8900693D03*
G01*
X5448300Y6364706D03*
G01*
X5194300Y6364706D03*
G01*
X4940300Y6364706D03*
G01*
X4686300Y6364706D03*
G01*
X4432300Y6364706D03*
G01*
X4178300Y6364706D03*
G01*
X3924300Y6364706D03*
G01*
X3670300Y6364706D03*
G01*
X3416300Y6364706D03*
G01*
X3162300Y6364706D03*
G01*
X2908300Y6364706D03*
G01*
X2654300Y6364706D03*
G01*
X2400300Y6364706D03*
G01*
X2146300Y6364706D03*
D11*
G01*
X1892312Y6364706D03*
G01*
X1638312Y6364706D03*
D13*
G01*
X1536700Y5232400D03*
D14*
G01*
X1790700Y5232400D03*
G01*
X2044700Y5232400D03*
G01*
X2298700Y5232400D03*
G01*
X2552700Y5232400D03*
G01*
X2806700Y5232400D03*
G01*
X3060700Y5232400D03*
M02*
